<svg xmlns="http://www.w3.org/2000/svg" version="1.1" xmlns:xlink="http://www.w3.org/1999/xlink" xmlns:svgjs="http://svgjs.dev/svgjs" width="2000" height="1500" viewBox="0 0 2000 1500"><rect width="2000" height="1500" fill="#fafafa"></rect><g transform="matrix(0.75,0,0,0.75,249.090909090909,511.3407925544343)"><svg viewBox="0 0 396 126" data-background-color="#fafafa" preserveAspectRatio="xMidYMid meet" height="636" width="2000" xmlns="http://www.w3.org/2000/svg" xmlns:xlink="http://www.w3.org/1999/xlink"><g id="tight-bounds" transform="matrix(1,0,0,1,0.2400000000000091,0.0420547969418692)"><svg viewBox="0 0 395.52 125.91589040611629" height="125.91589040611629" width="395.52"><g><svg viewBox="0 0 612.7751844356867 195.08023100473207" height="125.91589040611629" width="395.52"><g transform="matrix(1,0,0,1,0,26.96116072496659)"><svg viewBox="0 0 395.52 141.1579095547989" height="141.1579095547989" width="395.52"><g id="textblocktransform"><svg viewBox="0 0 395.52 141.1579095547989" height="141.1579095547989" width="395.52" id="textblock"><g><svg viewBox="0 0 395.52 93.93141797961074" height="93.93141797961074" width="395.52"><g transform="matrix(1,0,0,1,0,0)"><svg width="395.52" viewBox="0.63 -39.06 210.73000000000002 50.050000000000004" height="93.93141797961074" data-palette-color="#130912"><path d="M17.97-19.73L17.97-19.73 17.99-10.5Q17.99-6.08 15.77-3.03L15.77-3.03Q13.16 0.49 8.5 0.49L8.5 0.49Q4.83 0.49 2.64-1.95L2.64-1.95Q0.63-4.17 0.63-7.32L0.63-7.32Q1.73-9.86 2.98-11.21L2.98-11.21Q5.03-13.43 6.4-13.67L6.4-13.67Q6.01-11.45 6.01-9.59 6.01-7.74 6.16-6.46 6.32-5.18 6.69-4.17L6.69-4.17Q7.5-1.95 9.23-1.95L9.23-1.95Q10.74-1.95 11.52-3.91L11.52-3.91Q12.18-5.52 12.18-8.23L12.18-8.23 12.18-14.09Q12.18-24.68 12.04-31.93L12.04-31.93Q11.99-33.86 11.46-35.12 10.94-36.38 9.69-37.35L9.69-37.35 19.34-37.35Q18.6-36.04 18.44-34.52 18.29-33.01 18.16-31.2L18.16-31.2Q17.97-27.76 17.97-19.73ZM42.19-13.04L42.19-13.04 42.11-8.35Q42.11-3.98 42.92-2.39L42.92-2.39Q43.41-1.44 44.06-0.93L44.06-0.93 45.21 0 38.13 0 37.38-2.83Q34.62 0.49 29.51 0.49L29.51 0.49Q26.61 0.49 24.83-1.46L24.83-1.46Q23.26-3.22 23.26-5.62 23.26-8.01 24.4-9.79 25.53-11.57 27.39-12.74L27.39-12.74Q31.05-15.01 36.59-15.11L36.59-15.11 36.59-15.38Q36.59-21.31 34.76-22.34L34.76-22.34Q34.1-22.71 33.07-22.71 32.03-22.71 31-22.02 29.98-21.34 29.15-20.26L29.15-20.26Q27.49-18.09 26.78-15.14L26.78-15.14Q24.61-16.43 24.61-20.09L24.61-20.09Q24.61-21.58 25-23.44L25-23.44Q25.93-23.44 26.76-23.71L26.76-23.71 28.64-24.29Q31.39-25.15 34.03-25.15 36.67-25.15 38.24-24.37 39.82-23.58 40.7-22.05L40.7-22.05Q42.19-19.43 42.19-13.04ZM28.54-5.13Q28.54-3.61 29.23-2.78 29.93-1.95 30.98-1.95 32.03-1.95 33.01-2.5 33.98-3.05 34.76-4L34.76-4Q36.59-6.18 36.59-9.11L36.59-9.11 36.59-12.72Q33.18-12.4 30.95-10.45L30.95-10.45Q28.54-8.35 28.54-5.13L28.54-5.13ZM61.35-0.59L61.35-0.59Q58.98 0.49 56.68 0.49 54.39 0.49 52.88-0.1 51.36-0.68 50.29-1.81L50.29-1.81Q48.04-4.15 48.04-8.28L48.04-8.28Q48.04-16.24 52.61-20.68L52.61-20.68Q56.68-24.66 62.42-24.66L62.42-24.66 67.99-24.66Q67.3-22.29 67.21-20.12 67.11-17.94 67.07-16.56 67.04-15.19 67.01-13.77L67.01-13.77Q66.96-10.94 66.96-7.98 66.96-5.03 66.5-2.26 66.04 0.51 65.27 2.59 64.5 4.66 63.51 6.13 62.52 7.59 61.45 8.59L61.45 8.59Q59.69 10.23 57.37 10.99L57.37 10.99Q56.88 10.79 56.43 10.28 55.98 9.77 55.88 9.28L55.88 9.28Q58.66 8.15 60.3 3.69L60.3 3.69Q60.93 1.95 61.35-0.59ZM61.88-8.15L61.88-8.15 61.96-15.48Q61.96-19.9 61.64-22.17L61.64-22.17Q58.17-21.48 56.17-18.07L56.17-18.07Q54.15-14.58 54.15-9.25L54.15-9.25Q54.15-5.96 54.65-4.59 55.15-3.22 55.84-2.59 56.54-1.95 57.53-1.95 58.52-1.95 59.27-2.34 60.03-2.73 60.62-3.52L60.62-3.52Q61.88-5.2 61.88-8.15ZM92.99-39.06L92.99-39.06Q93.69-38.06 93.69-36 93.69-33.94 93.56-32.65 93.43-31.37 93.16-30.18L93.16-30.18Q92.57-27.49 91.52-26.12L91.52-26.12Q90.62-30.83 89.18-32.86L89.18-32.86Q87.66-34.91 85.23-34.91 82.81-34.91 81.44-33.98 80.07-33.06 79.34-31.54L79.34-31.54Q78.12-29.03 78.12-24.13 78.12-19.24 79.23-15.17 80.34-11.11 82.39-8.18L82.39-8.18Q86.71-1.95 93.64-1.95L93.64-1.95Q93.55-0.85 92.5-0.05L92.5-0.05Q92.18 0.2 91.81 0.24L91.81 0.24Q82.95 0.24 77.36-6.27L77.36-6.27Q71.43-13.21 71.43-25.17L71.43-25.17Q71.43-31.42 75.09-34.57L75.09-34.57Q78.34-37.35 83.98-37.35L83.98-37.35 88.05-37.3Q90.93-37.3 92.11-38.13L92.11-38.13Q92.6-38.5 92.99-39.06ZM119.37 0L112.17 0Q113.3-3.86 113.3-13.26L113.3-13.26Q113.3-17.19 112.88-18.49 112.47-19.8 111.84-20.4 111.22-21 110.18-21 109.15-21 108.3-20.61 107.46-20.21 106.8-19.58L106.8-19.58Q105.56-18.41 104.78-16.46L104.78-16.46 104.78-11.79Q104.78-4.93 105.04-3.3L105.04-3.3Q105.36-1.15 105.7 0L105.7 0 98.5 0Q99.09-2.05 99.28-5.44L99.28-5.44Q99.72-13.94 99.72-17.96 99.72-21.97 99.7-23.45 99.67-24.93 99.62-26.39L99.62-26.39Q99.5-31.71 99.15-33.07 98.79-34.42 98.49-35.05 98.18-35.67 97.82-36.18L97.82-36.18 96.99-37.33 105.9-37.33Q105.21-34.86 105.1-32.74 104.99-30.62 104.95-29.28 104.9-27.95 104.85-26.49L104.85-26.49Q104.78-23.07 104.78-20.46L104.78-20.46Q106.7-23.71 109.88-24.76L109.88-24.76Q111-25.15 112.39-25.15 113.78-25.15 114.92-24.55 116.05-23.95 116.81-22.85L116.81-22.85Q118.37-20.63 118.37-16.77L118.37-16.77 118.37-14.16Q118.37-6.69 118.58-4.8 118.79-2.91 118.86-2.29L118.86-2.29Q119.03-1.22 119.37 0L119.37 0ZM143.74-13.04L143.74-13.04 143.66-8.35Q143.66-3.98 144.47-2.39L144.47-2.39Q144.96-1.44 145.62-0.93L145.62-0.93 146.76 0 139.68 0 138.93-2.83Q136.17 0.49 131.07 0.49L131.07 0.49Q128.16 0.49 126.38-1.46L126.38-1.46Q124.82-3.22 124.82-5.62 124.82-8.01 125.95-9.79 127.09-11.57 128.94-12.74L128.94-12.74Q132.6-15.01 138.15-15.11L138.15-15.11 138.15-15.38Q138.15-21.31 136.32-22.34L136.32-22.34Q135.66-22.71 134.62-22.71 133.58-22.71 132.56-22.02 131.53-21.34 130.7-20.26L130.7-20.26Q129.04-18.09 128.33-15.14L128.33-15.14Q126.16-16.43 126.16-20.09L126.16-20.09Q126.16-21.58 126.55-23.44L126.55-23.44Q127.48-23.44 128.31-23.71L128.31-23.71 130.19-24.29Q132.95-25.15 135.58-25.15 138.22-25.15 139.79-24.37 141.37-23.58 142.25-22.05L142.25-22.05Q143.74-19.43 143.74-13.04ZM130.09-5.13Q130.09-3.61 130.79-2.78 131.48-1.95 132.53-1.95 133.58-1.95 134.56-2.5 135.53-3.05 136.32-4L136.32-4Q138.15-6.18 138.15-9.11L138.15-9.11 138.15-12.72Q134.73-12.4 132.51-10.45L132.51-10.45Q130.09-8.35 130.09-5.13L130.09-5.13ZM158.26 0L151.25 0Q152.38-3.86 152.38-13.26L152.38-13.26Q152.38-19.95 151.21-22.39L151.21-22.39Q150.91-23 150.55-23.54L150.55-23.54 149.74-24.66 158.21-24.66Q157.85-23.22 157.72-22.36L157.72-22.36 157.55-20.9Q160.39-25.15 164.77-25.15 169.15-25.15 170.44-20.39L170.44-20.39Q172.37-23.68 175.55-24.76L175.55-24.76Q176.67-25.15 178.07-25.15 179.48-25.15 180.61-24.55 181.75-23.95 182.53-22.85L182.53-22.85Q184.07-20.63 184.07-16.77L184.07-16.77 184.07-14.16Q184.07-6.69 184.27-4.8 184.48-2.91 184.58-2.29L184.58-2.29Q184.73-1.22 185.07 0L185.07 0 177.87 0Q178.94-3.69 178.94-13.26L178.94-13.26Q178.94-17.14 178.55-18.47 178.16-19.8 177.54-20.4 176.91-21 175.84-21L175.84-21Q172.69-21 170.83-17.29L170.83-17.29 170.83-14.16Q170.83-6.69 171.04-4.8 171.25-2.91 171.35-2.29L171.35-2.29Q171.49-1.22 171.84 0L171.84 0 164.63 0Q165.73-3.76 165.73-13.26L165.73-13.26Q165.73-17.24 165.34-18.52 164.95-19.8 164.34-20.4 163.73-21 162.67-21 161.61-21 160.75-20.58 159.9-20.17 159.21-19.48L159.21-19.48Q157.92-18.21 157.19-16.21L157.19-16.21Q157.14-15.5 157.14-14.75L157.14-14.75 157.14-13.26Q157.14-3.86 158.26 0L158.26 0ZM169.93-14.7L170.03-15.14 169.93-14.7ZM196.34-23.1L196.34-23.1Q199.08-25.15 203.18-25.15L203.18-25.15Q208.99-25.15 210.77-20.34L210.77-20.34Q211.36-18.75 211.36-16.35 211.36-13.94 210.81-11.66 210.26-9.38 209.28-7.54 208.31-5.71 206.98-4.32 205.65-2.93 204.08-2L204.08-2Q200.96-0.12 197.44-0.02L197.44-0.02Q197.49 1.29 197.59 2.56L197.59 2.56 197.83 5.15Q198.05 7.79 199.35 9.62L199.35 9.62 200.18 10.74 191.27 10.74Q191.95 8.4 192.06 6.05 192.17 3.71 192.23 2.04 192.29 0.37 192.32-1.42L192.32-1.42Q192.41-5.57 192.41-8.69L192.41-8.69Q192.41-18.75 191.78-21L191.78-21Q191.39-22.39 190.78-23.22L190.78-23.22 189.75-24.66 196.32-24.66Q196.17-24.17 196.34-23.1ZM205.26-15.7L205.26-15.7Q205.26-22.71 201.72-22.71L201.72-22.71Q199.96-22.71 198.79-21.14L198.79-21.14Q197.52-19.46 197.52-16.53L197.52-16.53 197.35-4.96 197.35-3.61Q197.35-2.95 197.37-2.27L197.37-2.27Q200.91-2.81 203.11-6.52L203.11-6.52Q205.26-10.18 205.26-15.7Z" opacity="1" transform="matrix(1,0,0,1,0,0)" fill="#130912" class="wordmark-text-0" data-fill-palette-color="primary" id="text-0"></path></svg></g></svg></g><g transform="matrix(1,0,0,1,163.310208,116.10637141056533)"><svg viewBox="0 0 232.209792 25.051538144233575" height="25.051538144233575" width="232.209792"><g transform="matrix(1,0,0,1,0,0)"><svg width="232.209792" viewBox="3.95 -36.35 342.47 36.95" height="25.051538144233575" data-palette-color="#130912"><path d="M3.95-35.8L8.5-35.8 8.5-4.05 26.15-4.05 26.15 0 3.95 0 3.95-35.8ZM52.45-11.8L52.45-11.65 33.5-11.65Q33.55-8.35 34.9-6.4L34.9-6.4Q37.05-3.25 41.1-3.25L41.1-3.25Q46.1-3.25 47.85-8L47.85-8 51.95-8Q51.15-3.95 48.25-1.7 45.35 0.55 40.95 0.55L40.95 0.55Q35.1 0.55 32-3.45L32-3.45Q29.25-6.95 29.25-12.7L29.25-12.7Q29.25-19.35 32.85-23.05L32.85-23.05Q36-26.25 41-26.25L41-26.25Q44.65-26.25 47.42-24.5 50.2-22.75 51.4-19.7L51.4-19.7Q52.45-17.1 52.45-11.8L52.45-11.8ZM33.65-15L48.05-15Q48.05-18.35 46.07-20.43 44.1-22.5 41-22.5L41-22.5Q37.85-22.5 35.87-20.48 33.9-18.45 33.65-15L33.65-15ZM80.84-3.45L80.84-3.45 80.84-0.15Q79.14 0.45 78.19 0.45L78.19 0.45Q74.19 0.45 73.84-3.2L73.84-3.2Q71.09 0.55 65.09 0.55L65.09 0.55Q60.95 0.55 58.64-1.75L58.64-1.75Q56.64-3.75 56.64-6.9L56.64-6.9Q56.64-10.5 59.2-12.45L59.2-12.45Q60.64-13.55 65.25-14.6L65.25-14.6 73.64-16.5 73.69-18.65Q73.69-22.5 67.89-22.5L67.89-22.5Q62.34-22.5 61.95-18L61.95-18 57.8-18Q57.95-21.4 59.49-23.2L59.49-23.2Q62.14-26.25 68.09-26.25L68.09-26.25Q77.75-26.25 77.75-19.25L77.75-19.25 77.75-4.9Q77.75-3 79.39-3L79.39-3Q79.59-3 80.44-3.3L80.44-3.3Q80.75-3.4 80.84-3.45ZM73.69-8.65L73.69-13.15 67.09-11.45Q63.55-10.55 62.22-9.6 60.89-8.65 60.89-6.95L60.89-6.95Q60.89-3 66-3L66-3Q69.59-3 72.09-5.35L72.09-5.35Q73.69-6.8 73.69-8.65L73.69-8.65ZM85.29 0L85.29-25.7 89.09-25.7 89.09-21Q91.34-26.3 96.19-26.3L96.19-26.3Q96.79-26.3 97.64-26.15L97.64-26.15 97.64-21.95Q93.64-21.9 92.14-20.8L92.14-20.8Q89.39-18.8 89.39-13.35L89.39-13.35 89.39 0 85.29 0ZM101.69 0L101.69-25.7 105.49-25.7 105.49-21.35Q108.59-26.25 113.99-26.25L113.99-26.25Q117.74-26.25 119.94-24.38 122.14-22.5 122.14-19.35L122.14-19.35 122.14 0 118.09 0 118.09-17.7Q118.09-20 116.67-21.35 115.24-22.7 112.79-22.7L112.79-22.7Q109.59-22.7 107.69-20.35 105.79-18 105.79-14.1L105.79-14.1 105.79 0 101.69 0ZM160.99-3.45L160.99-3.45 160.99-0.15Q159.29 0.45 158.34 0.45L158.34 0.45Q154.34 0.45 153.99-3.2L153.99-3.2Q151.24 0.55 145.24 0.55L145.24 0.55Q141.09 0.55 138.79-1.75L138.79-1.75Q136.79-3.75 136.79-6.9L136.79-6.9Q136.79-10.5 139.34-12.45L139.34-12.45Q140.79-13.55 145.39-14.6L145.39-14.6 153.79-16.5 153.84-18.65Q153.84-22.5 148.04-22.5L148.04-22.5Q142.49-22.5 142.09-18L142.09-18 137.94-18Q138.09-21.4 139.64-23.2L139.64-23.2Q142.29-26.25 148.24-26.25L148.24-26.25Q157.89-26.25 157.89-19.25L157.89-19.25 157.89-4.9Q157.89-3 159.54-3L159.54-3Q159.74-3 160.59-3.3L160.59-3.3Q160.89-3.4 160.99-3.45ZM153.84-8.65L153.84-13.15 147.24-11.45Q143.69-10.55 142.36-9.6 141.04-8.65 141.04-6.95L141.04-6.95Q141.04-3 146.14-3L146.14-3Q149.74-3 152.24-5.35L152.24-5.35Q153.84-6.8 153.84-8.65L153.84-8.65ZM165.48 0L165.48-25.7 169.28-25.7 169.28-21.35Q172.38-26.25 177.78-26.25L177.78-26.25Q181.53-26.25 183.73-24.38 185.93-22.5 185.93-19.35L185.93-19.35 185.93 0 181.88 0 181.88-17.7Q181.88-20 180.46-21.35 179.03-22.7 176.58-22.7L176.58-22.7Q173.38-22.7 171.48-20.35 169.58-18 169.58-14.1L169.58-14.1 169.58 0 165.48 0ZM209.58-35.8L213.68-35.8 213.68 0 209.58 0 209.58-3.55Q207.13 0.6 201.98 0.6L201.98 0.6Q196.33 0.6 193.28-3.5L193.28-3.5Q190.63-7.1 190.63-13L190.63-13Q190.63-19.45 194.08-23.1L194.08-23.1Q197.03-26.25 201.73-26.25L201.73-26.25Q206.93-26.25 209.58-22.35L209.58-22.35 209.58-35.8ZM202.43-22.45L202.43-22.45Q199.03-22.45 196.96-19.78 194.88-17.1 194.88-12.7L194.88-12.7Q194.88-8.15 197.28-5.55L197.28-5.55Q199.33-3.25 202.48-3.25L202.48-3.25Q205.73-3.25 207.66-5.8 209.58-8.35 209.58-12.7L209.58-12.7Q209.58-17.45 207.38-20.1L207.38-20.1Q205.43-22.45 202.43-22.45ZM255.08-25.5L255.08-25.5 250.78-25.5Q250.63-32.5 241.83-32.5L241.83-32.5Q238.23-32.5 236.03-30.88 233.83-29.25 233.83-26.6L233.83-26.6Q233.83-24.6 235.15-23.43 236.48-22.25 239.73-21.4L239.73-21.4 248.23-19.2Q256.33-17.05 256.33-10.2L256.33-10.2Q256.33-5.25 252.38-2.15L252.38-2.15Q248.88 0.55 242.33 0.55L242.33 0.55Q234.03 0.55 230.28-4.45L230.28-4.45Q228.28-7.15 228.18-11.7L228.18-11.7 232.48-11.7 232.48-11.6Q232.48-7.7 235.15-5.58 237.83-3.45 242.63-3.45L242.63-3.45Q247.03-3.45 249.18-4.9L249.18-4.9Q251.73-6.65 251.73-9.8L251.73-9.8Q251.73-13.8 245.18-15.45L245.18-15.45 236.28-17.75Q229.28-19.55 229.28-26L229.28-26Q229.28-31.1 233.13-33.9L233.13-33.9Q236.48-36.35 241.98-36.35L241.98-36.35Q249.78-36.35 253.13-31.8L253.13-31.8Q255.08-29.15 255.08-26.05L255.08-26.05Q255.08-25.9 255.08-25.5ZM262.02 0L262.02-25.7 265.82-25.7 265.82-22Q268.82-26.25 273.72-26.25L273.72-26.25Q278.47-26.25 280.62-22.45L280.62-22.45Q282.47-24.6 284.2-25.43 285.92-26.25 288.47-26.25L288.47-26.25Q295.97-26.25 295.97-19.2L295.97-19.2 295.97 0 291.87 0 291.87-17.6Q291.87-22.7 287.07-22.7L287.07-22.7Q284.57-22.7 282.82-20.75 281.07-18.8 281.07-16.1L281.07-16.1 281.07 0 276.97 0 276.97-17.6Q276.97-22.7 272.22-22.7L272.22-22.7Q269.67-22.7 267.9-20.78 266.12-18.85 266.12-16.1L266.12-16.1 266.12 0 262.02 0ZM302.72-25.7L306.77-25.7 306.77 0 302.72 0 302.72-25.7ZM304.82-35.75L304.82-35.75Q305.87-35.75 306.6-35.02 307.32-34.3 307.32-33.3L307.32-33.3Q307.32-32.25 306.6-31.53 305.87-30.8 304.82-30.8L304.82-30.8Q303.82-30.8 303.1-31.53 302.37-32.25 302.37-33.3L302.37-33.3Q302.37-34.3 303.1-35.02 303.82-35.75 304.82-35.75ZM313.72-35.8L317.82-35.8 317.82 0 313.72 0 313.72-35.8ZM346.42-11.8L346.42-11.65 327.47-11.65Q327.52-8.35 328.87-6.4L328.87-6.4Q331.02-3.25 335.07-3.25L335.07-3.25Q340.07-3.25 341.82-8L341.82-8 345.92-8Q345.12-3.95 342.22-1.7 339.32 0.55 334.92 0.55L334.92 0.55Q329.07 0.55 325.97-3.45L325.97-3.45Q323.22-6.95 323.22-12.7L323.22-12.7Q323.22-19.35 326.82-23.05L326.82-23.05Q329.97-26.25 334.97-26.25L334.97-26.25Q338.62-26.25 341.39-24.5 344.17-22.75 345.37-19.7L345.37-19.7Q346.42-17.1 346.42-11.8L346.42-11.8ZM327.62-15L342.02-15Q342.02-18.35 340.04-20.43 338.07-22.5 334.97-22.5L334.97-22.5Q331.82-22.5 329.84-20.48 327.87-18.45 327.62-15L327.62-15Z" opacity="1" transform="matrix(1,0,0,1,0,0)" fill="#130912" class="slogan-text-1" data-fill-palette-color="secondary" id="text-1"></path></svg></g></svg></g></svg></g></svg></g><g transform="matrix(1,0,0,1,417.69495343095457,0)"><svg viewBox="0 0 195.08023100473207 195.08023100473207" height="195.08023100473207" width="195.08023100473207"><g data-palette-color="#ff0000"><rect width="53.321929807960096" height="195.08023100473207" fill="#ff0000" stroke="transparent" data-fill-palette-color="accent" x="0" fill-opacity="1"></rect><rect width="53.321929807960096" height="195.08023100473207" fill="#ff0000" stroke="transparent" data-fill-palette-color="accent" x="65.02674366824402" fill-opacity="0.75"></rect><rect width="53.321929807960096" height="195.08023100473207" fill="#ff0000" stroke="transparent" data-fill-palette-color="accent" x="130.05348733648805" fill-opacity="0.5"></rect></g></svg></g></svg></g><defs></defs></svg><rect width="395.52" height="125.91589040611629" fill="none" stroke="none" visibility="hidden"></rect></g></svg></g></svg>